<svg width="21" height="22" viewBox="0 0 21 22" xmlns="http://www.w3.org/2000/svg"><title>Fill 1</title><path d="M17.62 11.975h-2.834v7.637h-2.889v-7.637H9.891V9.227h2.006V6.879c0-1.846 1.185-3.541 3.915-3.541 1.106 0 1.923.108 1.923.108l-.064 2.566s-.834-.008-1.743-.008c-.985 0-1.142.457-1.142 1.214v2.009h2.963l-.128 2.748zM19.563.325H1.284A1.185 1.185 0 0 0 .105 1.51v18.398c0 .651.53 1.186 1.179 1.186h18.278c.648 0 1.179-.535 1.179-1.186V1.51c0-.652-.53-1.187-1.179-1.187z" fill="#3B5998" fill-rule="evenodd"/></svg>