<svg width="21" height="17" viewBox="0 0 21 17" xmlns="http://www.w3.org/2000/svg"><title>Fill 4</title><path d="M20.636 1.998c-.76.34-1.576.567-2.432.671A4.274 4.274 0 0 0 20.065.312a8.488 8.488 0 0 1-2.687 1.034A4.215 4.215 0 0 0 14.288 0c-2.339 0-4.235 1.907-4.235 4.261 0 .332.038.66.11.971A12.004 12.004 0 0 1 1.436.781a4.259 4.259 0 0 0-.573 2.14c0 1.48.748 2.782 1.884 3.547A4.186 4.186 0 0 1 .83 5.934v.055a4.257 4.257 0 0 0 3.396 4.177 4.198 4.198 0 0 1-1.912.072 4.238 4.238 0 0 0 3.955 2.959A8.46 8.46 0 0 1 0 14.96a11.929 11.929 0 0 0 6.49 1.916c7.787 0 12.045-6.492 12.045-12.122 0-.185-.004-.37-.012-.552a8.628 8.628 0 0 0 2.113-2.205" fill="#1DA1F2" fill-rule="evenodd"/></svg>