<svg width="26" height="18" viewBox="0 0 26 18" xmlns="http://www.w3.org/2000/svg" xmlns:xlink="http://www.w3.org/1999/xlink"><title>Group 6</title><defs><path id="a" d="M0 0h26v18H0z"/></defs><g fill="none" fill-rule="evenodd"><mask id="b" fill="#fff"><use xlink:href="#a"/></mask><path d="M25.457 2.81a3.238 3.238 0 0 0-2.3-2.273C21.132 0 13 0 13 0S4.87 0 2.842.537A3.238 3.238 0 0 0 .543 2.811C0 4.816 0 9 0 9s0 4.184.543 6.19a3.239 3.239 0 0 0 2.299 2.273C4.87 18 13 18 13 18s8.13 0 10.158-.537a3.239 3.239 0 0 0 2.299-2.274C26 13.184 26 9 26 9s0-4.184-.543-6.19" fill="#F00" mask="url(#b)"/><path fill="#FFF" d="M10 13l7-3.5L10 6z"/></g></svg>